<mxfile host="app.diagrams.net" agent="Mozilla/5.0 (Windows NT 10.0; Win64; x64) AppleWebKit/537.36 (KHTML, like Gecko) Chrome/130.0.0.0 Safari/537.36" version="24.8.6" pages="6">
  <diagram name="Home_Page" id="fmbyX5czemfk-PiaFSsS">
    <mxGraphModel dx="1050" dy="1691" grid="1" gridSize="10" guides="1" tooltips="1" connect="1" arrows="1" fold="1" page="1" pageScale="1" pageWidth="827" pageHeight="1169" background="#fcfcfc" math="0" shadow="0">
      <root>
        <mxCell id="0" />
        <mxCell id="1" parent="0" />
        <mxCell id="stL2amJNzydux8UNaa-4-8" value="" style="rounded=0;whiteSpace=wrap;html=1;hachureGap=4;fontFamily=Architects Daughter;fontSource=https%3A%2F%2Ffonts.googleapis.com%2Fcss%3Ffamily%3DArchitects%2BDaughter;labelBackgroundColor=#bbeef2;labelBorderColor=default;textShadow=0;fillColor=#fff2cc;strokeColor=#d6b656;" parent="1" vertex="1">
          <mxGeometry x="5" y="-1150" width="815" height="630" as="geometry" />
        </mxCell>
        <mxCell id="stL2amJNzydux8UNaa-4-9" value="&lt;font style=&quot;font-size: 25px;&quot;&gt;Harvest Haven Farm&lt;/font&gt;" style="rounded=0;whiteSpace=wrap;html=1;hachureGap=4;fontFamily=Architects Daughter;fontSource=https%3A%2F%2Ffonts.googleapis.com%2Fcss%3Ffamily%3DArchitects%2BDaughter;fillColor=#d5e8d4;strokeColor=#82b366;" parent="1" vertex="1">
          <mxGeometry x="10" y="-1150" width="810" height="110" as="geometry" />
        </mxCell>
        <mxCell id="stL2amJNzydux8UNaa-4-10" value="" style="rounded=0;whiteSpace=wrap;html=1;hachureGap=4;fontFamily=Architects Daughter;fontSource=https%3A%2F%2Ffonts.googleapis.com%2Fcss%3Ffamily%3DArchitects%2BDaughter;fillColor=#d5e8d4;strokeColor=#82b366;" parent="1" vertex="1">
          <mxGeometry x="10" y="-1040" width="810" height="40" as="geometry" />
        </mxCell>
        <mxCell id="stL2amJNzydux8UNaa-4-11" value="&lt;font style=&quot;font-size: 16px;&quot;&gt;About&lt;/font&gt;" style="rounded=0;whiteSpace=wrap;html=1;hachureGap=4;fontFamily=Times New Roman;fillColor=#f8cecc;strokeColor=#b85450;shadow=1;" parent="1" vertex="1">
          <mxGeometry x="140" y="-1035" width="120" height="30" as="geometry" />
        </mxCell>
        <mxCell id="stL2amJNzydux8UNaa-4-12" value="&lt;font style=&quot;font-size: 16px;&quot;&gt;Shop&lt;/font&gt;" style="rounded=0;whiteSpace=wrap;html=1;hachureGap=4;fontFamily=Times New Roman;fillColor=#f8cecc;strokeColor=#b85450;shadow=1;" parent="1" vertex="1">
          <mxGeometry x="270" y="-1035" width="120" height="30" as="geometry" />
        </mxCell>
        <mxCell id="stL2amJNzydux8UNaa-4-13" value="&lt;font style=&quot;font-size: 16px;&quot;&gt;Activities&lt;/font&gt;" style="rounded=0;whiteSpace=wrap;html=1;hachureGap=4;fontFamily=Times New Roman;fillColor=#f8cecc;strokeColor=#b85450;shadow=1;" parent="1" vertex="1">
          <mxGeometry x="410" y="-1035" width="120" height="30" as="geometry" />
        </mxCell>
        <mxCell id="stL2amJNzydux8UNaa-4-15" value="&lt;font style=&quot;font-size: 17px;&quot;&gt;Contact&lt;/font&gt;" style="rounded=0;whiteSpace=wrap;html=1;hachureGap=4;fontFamily=Times New Roman;fillColor=#f8cecc;strokeColor=#b85450;shadow=1;" parent="1" vertex="1">
          <mxGeometry x="550" y="-1035" width="120" height="30" as="geometry" />
        </mxCell>
        <mxCell id="stL2amJNzydux8UNaa-4-16" value="&lt;font style=&quot;font-size: 25px;&quot;&gt;Welcome! Harvest Haven Farm&lt;/font&gt;" style="rounded=0;whiteSpace=wrap;html=1;hachureGap=4;fontFamily=Times New Roman;fillColor=#dae8fc;strokeColor=#6c8ebf;shadow=1;" parent="1" vertex="1">
          <mxGeometry x="35" y="-970" width="765" height="140" as="geometry" />
        </mxCell>
        <mxCell id="stL2amJNzydux8UNaa-4-17" value="&lt;font style=&quot;font-size: 20px;&quot;&gt;Feature Product Details&lt;/font&gt;" style="rounded=0;whiteSpace=wrap;html=1;hachureGap=4;fontFamily=Times New Roman;fillColor=#fff2cc;strokeColor=#d6b656;shadow=1;" parent="1" vertex="1">
          <mxGeometry x="260" y="-820" width="310" height="40" as="geometry" />
        </mxCell>
        <mxCell id="stL2amJNzydux8UNaa-4-18" value="&#xa;&lt;span style=&quot;color: rgb(51, 51, 51); font-size: 16px; font-style: normal; font-variant-ligatures: normal; font-variant-caps: normal; font-weight: 400; letter-spacing: normal; orphans: 2; text-align: center; text-indent: 0px; text-transform: none; widows: 2; word-spacing: 0px; -webkit-text-stroke-width: 0px; white-space: normal; background-color: rgb(255, 255, 255); text-decoration-thickness: initial; text-decoration-style: initial; text-decoration-color: initial; float: none; display: inline !important;&quot;&gt;Fresh, free-range eggs from our happy hens.&lt;/span&gt;&#xa;&#xa;" style="rounded=0;whiteSpace=wrap;html=1;hachureGap=4;fontFamily=Times New Roman;fillColor=#fff2cc;strokeColor=#d6b656;shadow=1;" parent="1" vertex="1">
          <mxGeometry x="40" y="-760" width="220" height="110" as="geometry" />
        </mxCell>
        <mxCell id="stL2amJNzydux8UNaa-4-19" value="&#xa;&lt;span style=&quot;color: rgb(51, 51, 51); font-size: 16px; font-style: normal; font-variant-ligatures: normal; font-variant-caps: normal; font-weight: 400; letter-spacing: normal; orphans: 2; text-align: center; text-indent: 0px; text-transform: none; widows: 2; word-spacing: 0px; -webkit-text-stroke-width: 0px; white-space: normal; background-color: rgb(255, 255, 255); text-decoration-thickness: initial; text-decoration-style: initial; text-decoration-color: initial; float: none; display: inline !important;&quot;&gt;Our famous, handmade pies made with love.&lt;/span&gt;&#xa;&#xa;" style="rounded=0;whiteSpace=wrap;html=1;hachureGap=4;fontFamily=Times New Roman;fillColor=#fff2cc;strokeColor=#d6b656;shadow=1;" parent="1" vertex="1">
          <mxGeometry x="280" y="-760" width="240" height="110" as="geometry" />
        </mxCell>
        <mxCell id="stL2amJNzydux8UNaa-4-20" value="&#xa;&lt;span style=&quot;color: rgb(51, 51, 51); font-size: 16px; font-style: normal; font-variant-ligatures: normal; font-variant-caps: normal; font-weight: 400; letter-spacing: normal; orphans: 2; text-align: center; text-indent: 0px; text-transform: none; widows: 2; word-spacing: 0px; -webkit-text-stroke-width: 0px; white-space: normal; background-color: rgb(255, 255, 255); text-decoration-thickness: initial; text-decoration-style: initial; text-decoration-color: initial; float: none; display: inline !important;&quot;&gt;Delicious homemade jams using farm-fresh fruit.&lt;/span&gt;&#xa;&#xa;" style="rounded=0;whiteSpace=wrap;html=1;hachureGap=4;fontFamily=Times New Roman;fillColor=#fff2cc;strokeColor=#d6b656;shadow=1;" parent="1" vertex="1">
          <mxGeometry x="550" y="-760" width="250" height="110" as="geometry" />
        </mxCell>
        <mxCell id="stL2amJNzydux8UNaa-4-21" value="Shopm Now" style="rounded=0;whiteSpace=wrap;html=1;hachureGap=4;fontFamily=Times New Roman;fillColor=#f8cecc;strokeColor=#b85450;shadow=1;" parent="1" vertex="1">
          <mxGeometry x="100" y="-640" width="90" height="30" as="geometry" />
        </mxCell>
        <mxCell id="stL2amJNzydux8UNaa-4-22" value="Shop Now" style="rounded=0;whiteSpace=wrap;html=1;hachureGap=4;fontFamily=Times New Roman;fillColor=#f8cecc;strokeColor=#b85450;shadow=1;" parent="1" vertex="1">
          <mxGeometry x="365" y="-640" width="100" height="30" as="geometry" />
        </mxCell>
        <mxCell id="stL2amJNzydux8UNaa-4-23" value="Shop Now" style="rounded=0;whiteSpace=wrap;html=1;hachureGap=4;fontFamily=Times New Roman;fillColor=#f8cecc;strokeColor=#b85450;shadow=1;" parent="1" vertex="1">
          <mxGeometry x="640" y="-640" width="105" height="30" as="geometry" />
        </mxCell>
        <mxCell id="stL2amJNzydux8UNaa-4-24" value="" style="rounded=0;whiteSpace=wrap;html=1;hachureGap=4;fontFamily=Architects Daughter;fontSource=https%3A%2F%2Ffonts.googleapis.com%2Fcss%3Ffamily%3DArchitects%2BDaughter;fillColor=#d5e8d4;strokeColor=#82b366;shadow=1;" parent="1" vertex="1">
          <mxGeometry x="10" y="-600" width="810" height="80" as="geometry" />
        </mxCell>
        <mxCell id="stL2amJNzydux8UNaa-4-25" value="&#xa;&lt;div style=&quot;color: rgb(0, 0, 0); background-color: rgb(255, 255, 255); font-weight: normal; font-size: 14px; line-height: 19px; white-space: pre;&quot;&gt;&lt;div&gt;&lt;span style=&quot;color: #000000;&quot;&gt;2024 Farm Fun | All Rights Reserved&lt;/span&gt;&lt;/div&gt;&lt;/div&gt;&#xa;&#xa;" style="rounded=0;whiteSpace=wrap;html=1;hachureGap=4;fontFamily=Times New Roman;" parent="1" vertex="1">
          <mxGeometry x="45" y="-585" width="290" height="40" as="geometry" />
        </mxCell>
        <mxCell id="stL2amJNzydux8UNaa-4-27" style="edgeStyle=orthogonalEdgeStyle;rounded=0;hachureGap=4;orthogonalLoop=1;jettySize=auto;html=1;exitX=0.5;exitY=1;exitDx=0;exitDy=0;fontFamily=Architects Daughter;fontSource=https%3A%2F%2Ffonts.googleapis.com%2Fcss%3Ffamily%3DArchitects%2BDaughter;" parent="1" source="stL2amJNzydux8UNaa-4-25" target="stL2amJNzydux8UNaa-4-25" edge="1">
          <mxGeometry relative="1" as="geometry" />
        </mxCell>
        <mxCell id="stL2amJNzydux8UNaa-4-29" value="facebook" style="ellipse;whiteSpace=wrap;html=1;rounded=0;hachureGap=4;fontFamily=Times New Roman;" parent="1" vertex="1">
          <mxGeometry x="600" y="-570" width="60" height="30" as="geometry" />
        </mxCell>
        <mxCell id="stL2amJNzydux8UNaa-4-30" value="instgram" style="ellipse;whiteSpace=wrap;html=1;rounded=0;hachureGap=4;fontFamily=Times New Roman;" parent="1" vertex="1">
          <mxGeometry x="670" y="-575" width="70" height="40" as="geometry" />
        </mxCell>
        <mxCell id="stL2amJNzydux8UNaa-4-31" value="tiwwter" style="ellipse;whiteSpace=wrap;html=1;rounded=0;hachureGap=4;fontFamily=Times New Roman;" parent="1" vertex="1">
          <mxGeometry x="750" y="-575" width="60" height="40" as="geometry" />
        </mxCell>
      </root>
    </mxGraphModel>
  </diagram>
  <diagram id="fo3j0X5MqCX0f6KBCO15" name="shop_Page">
    <mxGraphModel dx="3531" dy="1691" grid="1" gridSize="10" guides="1" tooltips="1" connect="1" arrows="1" fold="1" page="1" pageScale="1" pageWidth="827" pageHeight="1169" background="#FFFFFF" math="0" shadow="0">
      <root>
        <mxCell id="0" />
        <mxCell id="1" parent="0" />
        <mxCell id="8h6INSgTVHSgRxXgeTbt-1" value="" style="rounded=0;whiteSpace=wrap;html=1;hachureGap=4;fontFamily=Architects Daughter;fontSource=https%3A%2F%2Ffonts.googleapis.com%2Fcss%3Ffamily%3DArchitects%2BDaughter;labelBackgroundColor=none;labelBorderColor=none;textShadow=0;fillColor=#fff2cc;strokeColor=#d6b656;" parent="1" vertex="1">
          <mxGeometry x="-2475" y="-1163" width="815" height="640" as="geometry" />
        </mxCell>
        <mxCell id="8h6INSgTVHSgRxXgeTbt-2" value="&lt;font style=&quot;font-size: 25px;&quot;&gt;Harvest Haven Farm&lt;/font&gt;" style="rounded=0;whiteSpace=wrap;html=1;hachureGap=4;fontFamily=Times New Roman;labelBackgroundColor=none;fillColor=#d5e8d4;strokeColor=#82b366;shadow=1;" parent="1" vertex="1">
          <mxGeometry x="-2470" y="-1160" width="810" height="130" as="geometry" />
        </mxCell>
        <mxCell id="8h6INSgTVHSgRxXgeTbt-9" value="&lt;font style=&quot;font-size: 20px;&quot;&gt;Product Categories&lt;/font&gt;" style="rounded=0;whiteSpace=wrap;html=1;hachureGap=4;fontFamily=Times New Roman;labelBackgroundColor=none;fillColor=#d5e8d4;strokeColor=#82b366;shadow=1;" parent="1" vertex="1">
          <mxGeometry x="-2225" y="-970" width="310" height="40" as="geometry" />
        </mxCell>
        <mxCell id="8h6INSgTVHSgRxXgeTbt-10" value="&lt;div&gt;&lt;br&gt;&lt;/div&gt;&lt;div&gt;&lt;font&gt;Fresh Produce&lt;/font&gt;&lt;/div&gt;&lt;div style=&quot;font-size: 19px;&quot;&gt;Eggs, Vegetables&lt;/div&gt;" style="rounded=0;whiteSpace=wrap;html=1;hachureGap=4;fontFamily=Times New Roman;labelBackgroundColor=none;fillColor=#dae8fc;strokeColor=#6c8ebf;shadow=1;" parent="1" vertex="1">
          <mxGeometry x="-2430" y="-920" width="220" height="110" as="geometry" />
        </mxCell>
        <mxCell id="8h6INSgTVHSgRxXgeTbt-11" value="Dairy&lt;div style=&quot;font-size: 17px;&quot;&gt;Milk, Yogurt, Cheese&lt;/div&gt;" style="rounded=0;whiteSpace=wrap;html=1;hachureGap=4;fontFamily=Times New Roman;labelBackgroundColor=none;fillColor=#dae8fc;strokeColor=#6c8ebf;shadow=1;" parent="1" vertex="1">
          <mxGeometry x="-2190" y="-920" width="240" height="110" as="geometry" />
        </mxCell>
        <mxCell id="8h6INSgTVHSgRxXgeTbt-12" value="Baked Good&lt;div style=&quot;font-size: 18px;&quot;&gt;Bread,Cakes&lt;/div&gt;" style="rounded=0;whiteSpace=wrap;html=1;hachureGap=4;fontFamily=Times New Roman;labelBackgroundColor=none;fillColor=#dae8fc;strokeColor=#6c8ebf;shadow=1;" parent="1" vertex="1">
          <mxGeometry x="-1930" y="-920" width="250" height="110" as="geometry" />
        </mxCell>
        <mxCell id="8h6INSgTVHSgRxXgeTbt-16" value="" style="rounded=0;whiteSpace=wrap;html=1;hachureGap=4;fontFamily=Architects Daughter;fontSource=https%3A%2F%2Ffonts.googleapis.com%2Fcss%3Ffamily%3DArchitects%2BDaughter;labelBackgroundColor=none;fillColor=#d5e8d4;strokeColor=#82b366;glass=0;shadow=1;" parent="1" vertex="1">
          <mxGeometry x="-2470" y="-600" width="810" height="70" as="geometry" />
        </mxCell>
        <mxCell id="8h6INSgTVHSgRxXgeTbt-17" value="&#xa;&lt;div style=&quot;color: rgb(0, 0, 0); background-color: rgb(255, 255, 255); font-weight: normal; font-size: 14px; line-height: 19px; white-space: pre;&quot;&gt;&lt;div&gt;&lt;span style=&quot;color: #000000;&quot;&gt;2024 Farm Fun | All Rights Reserved&lt;/span&gt;&lt;/div&gt;&lt;/div&gt;&#xa;&#xa;" style="rounded=0;whiteSpace=wrap;html=1;hachureGap=4;fontFamily=Comic Sans MS;labelBackgroundColor=none;" parent="1" vertex="1">
          <mxGeometry x="-2450" y="-577.5" width="290" height="40" as="geometry" />
        </mxCell>
        <mxCell id="8h6INSgTVHSgRxXgeTbt-18" style="edgeStyle=orthogonalEdgeStyle;rounded=0;hachureGap=4;orthogonalLoop=1;jettySize=auto;html=1;exitX=0.5;exitY=1;exitDx=0;exitDy=0;fontFamily=Architects Daughter;fontSource=https%3A%2F%2Ffonts.googleapis.com%2Fcss%3Ffamily%3DArchitects%2BDaughter;labelBackgroundColor=none;fontColor=default;sketch=1;curveFitting=1;jiggle=2;" parent="1" source="8h6INSgTVHSgRxXgeTbt-17" target="8h6INSgTVHSgRxXgeTbt-17" edge="1">
          <mxGeometry relative="1" as="geometry" />
        </mxCell>
        <mxCell id="8h6INSgTVHSgRxXgeTbt-19" value="facebook" style="ellipse;whiteSpace=wrap;html=1;rounded=0;hachureGap=4;fontFamily=Architects Daughter;fontSource=https%3A%2F%2Ffonts.googleapis.com%2Fcss%3Ffamily%3DArchitects%2BDaughter;labelBackgroundColor=none;shadow=1;" parent="1" vertex="1">
          <mxGeometry x="-1890" y="-567.5" width="60" height="30" as="geometry" />
        </mxCell>
        <mxCell id="8h6INSgTVHSgRxXgeTbt-20" value="instgram" style="ellipse;whiteSpace=wrap;html=1;rounded=0;hachureGap=4;fontFamily=Architects Daughter;fontSource=https%3A%2F%2Ffonts.googleapis.com%2Fcss%3Ffamily%3DArchitects%2BDaughter;labelBackgroundColor=none;shadow=0;" parent="1" vertex="1">
          <mxGeometry x="-1820" y="-567.5" width="70" height="30" as="geometry" />
        </mxCell>
        <mxCell id="8h6INSgTVHSgRxXgeTbt-21" value="tiwwter" style="ellipse;whiteSpace=wrap;html=1;rounded=0;hachureGap=4;fontFamily=Architects Daughter;fontSource=https%3A%2F%2Ffonts.googleapis.com%2Fcss%3Ffamily%3DArchitects%2BDaughter;labelBackgroundColor=none;" parent="1" vertex="1">
          <mxGeometry x="-1740" y="-570" width="60" height="35" as="geometry" />
        </mxCell>
        <mxCell id="p0UAoPZw6l1sCbXbNOEr-1" value="&lt;font style=&quot;font-size: 16px;&quot;&gt;Pressve and Jams&lt;/font&gt;&lt;div style=&quot;font-size: 16px;&quot;&gt;&lt;font style=&quot;font-size: 16px;&quot;&gt;Jams ,Marmalade&lt;/font&gt;&lt;/div&gt;" style="rounded=0;whiteSpace=wrap;html=1;fontSize=16;labelBackgroundColor=none;fillColor=#dae8fc;strokeColor=#6c8ebf;shadow=1;fontFamily=Times New Roman;" parent="1" vertex="1">
          <mxGeometry x="-2350" y="-790" width="260" height="100" as="geometry" />
        </mxCell>
        <mxCell id="p0UAoPZw6l1sCbXbNOEr-2" value="Drinks&lt;div style=&quot;font-size: 16px;&quot;&gt;Fruit Juices,beer,wines&lt;/div&gt;" style="rounded=0;whiteSpace=wrap;html=1;fontFamily=Times New Roman;fontSize=16;labelBackgroundColor=none;fillColor=#dae8fc;strokeColor=#6c8ebf;shadow=1;" parent="1" vertex="1">
          <mxGeometry x="-2050" y="-790" width="250" height="100" as="geometry" />
        </mxCell>
        <mxCell id="eeyiyqwDeNA-F7RVP2jK-1" value="" style="rounded=0;whiteSpace=wrap;html=1;hachureGap=4;fontFamily=Architects Daughter;fontSource=https%3A%2F%2Ffonts.googleapis.com%2Fcss%3Ffamily%3DArchitects%2BDaughter;fillColor=#d5e8d4;strokeColor=#82b366;" parent="1" vertex="1">
          <mxGeometry x="-2475" y="-1030" width="815" height="40" as="geometry" />
        </mxCell>
        <mxCell id="WyIFpU_sg20MbyrWJk5H-1" value="&lt;font style=&quot;font-size: 16px;&quot;&gt;About&lt;/font&gt;" style="rounded=0;whiteSpace=wrap;html=1;hachureGap=4;fontFamily=Times New Roman;fillColor=#f8cecc;strokeColor=#b85450;shadow=1;" parent="1" vertex="1">
          <mxGeometry x="-2340" y="-1025" width="120" height="30" as="geometry" />
        </mxCell>
        <mxCell id="NLOPL3eFw6-nzh8ZpQQ_-1" value="&lt;font style=&quot;font-size: 16px;&quot;&gt;Shop&lt;/font&gt;" style="rounded=0;whiteSpace=wrap;html=1;hachureGap=4;fontFamily=Times New Roman;fillColor=#f8cecc;strokeColor=#b85450;shadow=1;" parent="1" vertex="1">
          <mxGeometry x="-2200" y="-1025" width="120" height="30" as="geometry" />
        </mxCell>
        <mxCell id="fsk35ZErYiR3mDQ8LhfF-1" value="&lt;font style=&quot;font-size: 16px;&quot;&gt;Activities&lt;/font&gt;" style="rounded=0;whiteSpace=wrap;html=1;hachureGap=4;fontFamily=Times New Roman;fillColor=#f8cecc;strokeColor=#b85450;shadow=1;" parent="1" vertex="1">
          <mxGeometry x="-2060" y="-1025" width="120" height="30" as="geometry" />
        </mxCell>
        <mxCell id="0RO5MOi82mkG7quUxxQM-1" value="&lt;font style=&quot;font-size: 17px;&quot;&gt;Contact&lt;/font&gt;" style="rounded=0;whiteSpace=wrap;html=1;hachureGap=4;fontFamily=Times New Roman;fillColor=#f8cecc;strokeColor=#b85450;shadow=1;" parent="1" vertex="1">
          <mxGeometry x="-1930" y="-1025" width="120" height="30" as="geometry" />
        </mxCell>
      </root>
    </mxGraphModel>
  </diagram>
  <diagram id="fbEF2v583dQ4DACiy_n0" name="Activities_Page">
    <mxGraphModel dx="1050" dy="1691" grid="1" gridSize="10" guides="1" tooltips="1" connect="1" arrows="1" fold="1" page="1" pageScale="1" pageWidth="827" pageHeight="1169" math="0" shadow="0">
      <root>
        <mxCell id="0" />
        <mxCell id="1" parent="0" />
        <mxCell id="1ohBkxemiJ0g98Dccg4C-1" style="edgeStyle=orthogonalEdgeStyle;rounded=0;sketch=1;hachureGap=4;jiggle=2;curveFitting=1;orthogonalLoop=1;jettySize=auto;html=1;exitX=0.5;exitY=1;exitDx=0;exitDy=0;fontFamily=Architects Daughter;fontSource=https%3A%2F%2Ffonts.googleapis.com%2Fcss%3Ffamily%3DArchitects%2BDaughter;" parent="1" source="2X-2HbokYUpBVhOpIJeJ-1" edge="1">
          <mxGeometry relative="1" as="geometry">
            <mxPoint x="525" y="270" as="targetPoint" />
          </mxGeometry>
        </mxCell>
        <mxCell id="2X-2HbokYUpBVhOpIJeJ-1" value="" style="rounded=0;whiteSpace=wrap;html=1;hachureGap=4;fontFamily=Architects Daughter;fontSource=https%3A%2F%2Ffonts.googleapis.com%2Fcss%3Ffamily%3DArchitects%2BDaughter;labelBackgroundColor=#bbeef2;labelBorderColor=none;textShadow=0;fillColor=#fff2cc;strokeColor=#d6b656;" parent="1" vertex="1">
          <mxGeometry x="105" y="-413" width="835" height="753" as="geometry" />
        </mxCell>
        <mxCell id="2X-2HbokYUpBVhOpIJeJ-2" value="&lt;font style=&quot;font-size: 25px;&quot;&gt;Harvest Haven Farm&lt;/font&gt;" style="rounded=0;whiteSpace=wrap;html=1;hachureGap=4;fontFamily=Times New Roman;fillColor=#d5e8d4;strokeColor=#82b366;shadow=1;" parent="1" vertex="1">
          <mxGeometry x="110" y="-413" width="830" height="130" as="geometry" />
        </mxCell>
        <mxCell id="2X-2HbokYUpBVhOpIJeJ-3" value="&lt;font style=&quot;font-size: 20px;&quot;&gt;Farm Activities&lt;/font&gt;" style="rounded=0;whiteSpace=wrap;html=1;hachureGap=4;fontFamily=Times New Roman;fillColor=#f8cecc;strokeColor=#b85450;shadow=1;" parent="1" vertex="1">
          <mxGeometry x="360" y="-270" width="310" height="40" as="geometry" />
        </mxCell>
        <mxCell id="2X-2HbokYUpBVhOpIJeJ-4" value="&lt;div&gt;&lt;br&gt;&lt;/div&gt;&lt;div&gt;&lt;div&gt;&lt;span style=&quot;font-size: 19px;&quot;&gt;Hayrides&lt;/span&gt;&lt;/div&gt;&lt;div&gt;&lt;span style=&quot;font-size: 19px;&quot;&gt;Take a fun ride around the farm! Available on weekends and during special seasons.&lt;/span&gt;&lt;/div&gt;&lt;/div&gt;" style="rounded=0;whiteSpace=wrap;html=1;hachureGap=4;fontFamily=Comic Sans MS;fillColor=#dae8fc;strokeColor=#6c8ebf;shadow=1;" parent="1" vertex="1">
          <mxGeometry x="150" y="-220" width="220" height="130" as="geometry" />
        </mxCell>
        <mxCell id="2X-2HbokYUpBVhOpIJeJ-5" value="&lt;br&gt;&lt;div style=&quot;font-size: 17px;&quot;&gt;&lt;div&gt;Pumpkin Picking&lt;/div&gt;&lt;div&gt;Autumn is the perfect time for pumpkin picking, with a variety of pumpkins to choose from.&lt;/div&gt;&lt;/div&gt;" style="rounded=0;whiteSpace=wrap;html=1;hachureGap=4;fontFamily=Comic Sans MS;fillColor=#dae8fc;strokeColor=#6c8ebf;shadow=1;" parent="1" vertex="1">
          <mxGeometry x="390" y="-220" width="240" height="130" as="geometry" />
        </mxCell>
        <mxCell id="2X-2HbokYUpBVhOpIJeJ-6" value="&lt;div style=&quot;font-size: 16px;&quot;&gt;Corn Maze&lt;/div&gt;&lt;div style=&quot;font-size: 16px;&quot;&gt;Get lost in our large corn maze, open in the fall and fun for all ages!&lt;/div&gt;" style="rounded=0;whiteSpace=wrap;html=1;hachureGap=4;fontFamily=Comic Sans MS;fillColor=#dae8fc;strokeColor=#6c8ebf;fontSize=16;shadow=1;" parent="1" vertex="1">
          <mxGeometry x="650" y="-220" width="250" height="130" as="geometry" />
        </mxCell>
        <mxCell id="2X-2HbokYUpBVhOpIJeJ-7" value="" style="rounded=0;whiteSpace=wrap;html=1;hachureGap=4;fontFamily=Architects Daughter;fontSource=https%3A%2F%2Ffonts.googleapis.com%2Fcss%3Ffamily%3DArchitects%2BDaughter;fillColor=#d5e8d4;strokeColor=#82b366;shadow=1;" parent="1" vertex="1">
          <mxGeometry x="110" y="250" width="830" height="80" as="geometry" />
        </mxCell>
        <mxCell id="2X-2HbokYUpBVhOpIJeJ-8" value="&#xa;&lt;div style=&quot;color: rgb(0, 0, 0); background-color: rgb(255, 255, 255); font-weight: normal; font-size: 14px; line-height: 19px; white-space: pre;&quot;&gt;&lt;div&gt;&lt;span style=&quot;color: #000000;&quot;&gt;2024 Farm Fun | All Rights Reserved&lt;/span&gt;&lt;/div&gt;&lt;/div&gt;&#xa;&#xa;" style="rounded=0;whiteSpace=wrap;html=1;hachureGap=4;fontFamily=Comic Sans MS;" parent="1" vertex="1">
          <mxGeometry x="140" y="265" width="290" height="40" as="geometry" />
        </mxCell>
        <mxCell id="2X-2HbokYUpBVhOpIJeJ-9" style="edgeStyle=orthogonalEdgeStyle;rounded=0;hachureGap=4;orthogonalLoop=1;jettySize=auto;html=1;exitX=0.5;exitY=1;exitDx=0;exitDy=0;fontFamily=Architects Daughter;fontSource=https%3A%2F%2Ffonts.googleapis.com%2Fcss%3Ffamily%3DArchitects%2BDaughter;" parent="1" source="2X-2HbokYUpBVhOpIJeJ-8" target="2X-2HbokYUpBVhOpIJeJ-8" edge="1">
          <mxGeometry relative="1" as="geometry" />
        </mxCell>
        <mxCell id="2X-2HbokYUpBVhOpIJeJ-10" value="facebook" style="ellipse;whiteSpace=wrap;html=1;rounded=0;hachureGap=4;fontFamily=Architects Daughter;fontSource=https%3A%2F%2Ffonts.googleapis.com%2Fcss%3Ffamily%3DArchitects%2BDaughter;" parent="1" vertex="1">
          <mxGeometry x="680" y="275" width="60" height="30" as="geometry" />
        </mxCell>
        <mxCell id="2X-2HbokYUpBVhOpIJeJ-11" value="instgram" style="ellipse;whiteSpace=wrap;html=1;rounded=0;hachureGap=4;fontFamily=Architects Daughter;fontSource=https%3A%2F%2Ffonts.googleapis.com%2Fcss%3Ffamily%3DArchitects%2BDaughter;" parent="1" vertex="1">
          <mxGeometry x="750" y="270" width="70" height="40" as="geometry" />
        </mxCell>
        <mxCell id="2X-2HbokYUpBVhOpIJeJ-12" value="tiwwter" style="ellipse;whiteSpace=wrap;html=1;rounded=0;hachureGap=4;fontFamily=Architects Daughter;fontSource=https%3A%2F%2Ffonts.googleapis.com%2Fcss%3Ffamily%3DArchitects%2BDaughter;" parent="1" vertex="1">
          <mxGeometry x="830" y="270" width="60" height="40" as="geometry" />
        </mxCell>
        <mxCell id="2X-2HbokYUpBVhOpIJeJ-13" value="&lt;div style=&quot;font-size: 16px;&quot;&gt;&lt;div&gt;&lt;font face=&quot;Comic Sans MS&quot;&gt;Animal Visits&lt;/font&gt;&lt;/div&gt;&lt;div&gt;&lt;font face=&quot;Comic Sans MS&quot;&gt;Meet and feed our farm animals like goats, chickens, and pigs.&lt;/font&gt;&lt;/div&gt;&lt;/div&gt;" style="rounded=0;whiteSpace=wrap;html=1;fillColor=#dae8fc;strokeColor=#6c8ebf;fontSize=16;shadow=1;" parent="1" vertex="1">
          <mxGeometry x="150" y="-80" width="220" height="110" as="geometry" />
        </mxCell>
        <mxCell id="2X-2HbokYUpBVhOpIJeJ-14" value="&lt;div&gt;&lt;br&gt;&lt;/div&gt;&lt;div&gt;Farm Tool Play Areas&lt;/div&gt;&lt;div&gt;Let the kids play with safe, vintage farm tools to learn about farm life.&lt;/div&gt;&lt;div style=&quot;font-size: 16px;&quot;&gt;&lt;br&gt;&lt;/div&gt;" style="rounded=0;whiteSpace=wrap;html=1;fillColor=#dae8fc;strokeColor=#6c8ebf;fontFamily=Comic Sans MS;fontSize=16;shadow=1;" parent="1" vertex="1">
          <mxGeometry x="391.25" y="-80" width="237.5" height="110" as="geometry" />
        </mxCell>
        <mxCell id="LZl69I80H-_Vq7vxF478-2" value="&lt;div style=&quot;font-size: 15px;&quot;&gt;&lt;font style=&quot;font-size: 15px;&quot;&gt;Pick-Your-Own Produce&lt;/font&gt;&lt;/div&gt;&lt;div style=&quot;font-size: 15px;&quot;&gt;&lt;font style=&quot;font-size: 15px;&quot;&gt;Seasonally available fruits and vegetables, ready for you to pick and take home&lt;/font&gt;&lt;span style=&quot;font-size: 15px;&quot;&gt;.&lt;/span&gt;&lt;/div&gt;" style="rounded=0;whiteSpace=wrap;html=1;hachureGap=4;fontFamily=Comic Sans MS;fillColor=#dae8fc;strokeColor=#6c8ebf;shadow=1;fontSize=15;" parent="1" vertex="1">
          <mxGeometry x="650" y="-80" width="250" height="110" as="geometry" />
        </mxCell>
        <mxCell id="1dOA5HwqX5AarRgDxDhU-1" value="Event Calendar&#xa;Check out our seasonal events and special farm festivals:&#xa;&#xa;&#xa;Fall Harvest Festival - October&#xa;Winter Wonderland - December&#xa;Spring Planting Party - April&#xa;Summer Family Picnic - July" style="rounded=0;whiteSpace=wrap;html=1;hachureGap=4;fontFamily=Comic Sans MS;shadow=1;fillColor=#d5e8d4;strokeColor=#82b366;fontSize=14;fontStyle=1" parent="1" vertex="1">
          <mxGeometry x="150" y="40" width="750" height="140" as="geometry" />
        </mxCell>
        <mxCell id="1dOA5HwqX5AarRgDxDhU-3" value="&lt;font style=&quot;font-size: 16px;&quot;&gt;Plan &lt;font style=&quot;font-size: 16px;&quot;&gt;Your &lt;/font&gt;Visit&lt;/font&gt;" style="rounded=0;whiteSpace=wrap;html=1;hachureGap=4;fontFamily=Architects Daughter;fontSource=https%3A%2F%2Ffonts.googleapis.com%2Fcss%3Ffamily%3DArchitects%2BDaughter;fillColor=#f8cecc;strokeColor=#b85450;shadow=1;" parent="1" vertex="1">
          <mxGeometry x="450" y="190" width="120" height="40" as="geometry" />
        </mxCell>
        <mxCell id="-aNUFulkYIYGl9ei9m3H-1" value="&lt;font style=&quot;font-size: 16px;&quot;&gt;About&lt;/font&gt;" style="rounded=0;whiteSpace=wrap;html=1;hachureGap=4;fontFamily=Times New Roman;fillColor=#f8cecc;strokeColor=#b85450;shadow=1;" parent="1" vertex="1">
          <mxGeometry x="240" y="-325" width="120" height="30" as="geometry" />
        </mxCell>
        <mxCell id="UyX-ddTpq-cXTnT3aJD_-1" value="&lt;font style=&quot;font-size: 16px;&quot;&gt;Shop&lt;/font&gt;" style="rounded=0;whiteSpace=wrap;html=1;hachureGap=4;fontFamily=Times New Roman;fillColor=#f8cecc;strokeColor=#b85450;shadow=1;" parent="1" vertex="1">
          <mxGeometry x="370" y="-325" width="120" height="30" as="geometry" />
        </mxCell>
        <mxCell id="IOu1j7Bf6qwGkmud5Fft-1" value="&lt;font style=&quot;font-size: 16px;&quot;&gt;Activities&lt;/font&gt;" style="rounded=0;whiteSpace=wrap;html=1;hachureGap=4;fontFamily=Times New Roman;fillColor=#f8cecc;strokeColor=#b85450;shadow=1;" parent="1" vertex="1">
          <mxGeometry x="510" y="-325" width="120" height="30" as="geometry" />
        </mxCell>
        <mxCell id="1L_B90X6H-8Nf_pWliOi-1" value="&lt;font style=&quot;font-size: 17px;&quot;&gt;Contact&lt;/font&gt;" style="rounded=0;whiteSpace=wrap;html=1;hachureGap=4;fontFamily=Times New Roman;fillColor=#f8cecc;strokeColor=#b85450;shadow=1;" parent="1" vertex="1">
          <mxGeometry x="650" y="-325" width="120" height="30" as="geometry" />
        </mxCell>
      </root>
    </mxGraphModel>
  </diagram>
  <diagram id="tC4CLoTdrybj0jYVTZKA" name="Contact Page">
    <mxGraphModel dx="1050" dy="2860" grid="1" gridSize="10" guides="1" tooltips="1" connect="1" arrows="1" fold="1" page="1" pageScale="1" pageWidth="827" pageHeight="1169" math="0" shadow="0">
      <root>
        <mxCell id="0" />
        <mxCell id="1" parent="0" />
        <mxCell id="GahuecInYYnBUlUauTgn-1" value="" style="rounded=0;whiteSpace=wrap;html=1;hachureGap=4;fontFamily=Times New Roman;labelBackgroundColor=#e3e7e8;labelBorderColor=none;textShadow=0;fillColor=#fff2cc;strokeColor=#d6b656;" parent="1" vertex="1">
          <mxGeometry x="5" y="-2335" width="815" height="1335" as="geometry" />
        </mxCell>
        <mxCell id="GahuecInYYnBUlUauTgn-2" value="&lt;font style=&quot;font-size: 25px;&quot;&gt;Harvest Haven Farm&lt;/font&gt;" style="rounded=0;whiteSpace=wrap;html=1;hachureGap=4;fontFamily=Architects Daughter;fontSource=https%3A%2F%2Ffonts.googleapis.com%2Fcss%3Ffamily%3DArchitects%2BDaughter;fillColor=#d5e8d4;strokeColor=#82b366;" parent="1" vertex="1">
          <mxGeometry x="10" y="-2335" width="810" height="105" as="geometry" />
        </mxCell>
        <mxCell id="GahuecInYYnBUlUauTgn-3" value="" style="rounded=0;whiteSpace=wrap;html=1;hachureGap=4;fontFamily=Architects Daughter;fontSource=https%3A%2F%2Ffonts.googleapis.com%2Fcss%3Ffamily%3DArchitects%2BDaughter;fillColor=#d5e8d4;strokeColor=#82b366;" parent="1" vertex="1">
          <mxGeometry x="8.75" y="-2235" width="811.25" height="40" as="geometry" />
        </mxCell>
        <mxCell id="GahuecInYYnBUlUauTgn-4" value="&lt;font style=&quot;font-size: 16px;&quot;&gt;About&lt;/font&gt;" style="rounded=0;whiteSpace=wrap;html=1;hachureGap=4;fontFamily=Architects Daughter;fontSource=https%3A%2F%2Ffonts.googleapis.com%2Fcss%3Ffamily%3DArchitects%2BDaughter;fillColor=#f8cecc;strokeColor=#b85450;shadow=1;" parent="1" vertex="1">
          <mxGeometry x="120" y="-2230" width="120" height="30" as="geometry" />
        </mxCell>
        <mxCell id="GahuecInYYnBUlUauTgn-5" value="&lt;font style=&quot;font-size: 16px;&quot;&gt;Shop&lt;/font&gt;" style="rounded=0;whiteSpace=wrap;html=1;hachureGap=4;fontFamily=Architects Daughter;fontSource=https%3A%2F%2Ffonts.googleapis.com%2Fcss%3Ffamily%3DArchitects%2BDaughter;fillColor=#f8cecc;strokeColor=#b85450;shadow=1;" parent="1" vertex="1">
          <mxGeometry x="270" y="-2230" width="120" height="30" as="geometry" />
        </mxCell>
        <mxCell id="GahuecInYYnBUlUauTgn-6" value="&lt;font style=&quot;font-size: 16px;&quot;&gt;Activities&lt;/font&gt;" style="rounded=0;whiteSpace=wrap;html=1;hachureGap=4;fontFamily=Architects Daughter;fontSource=https%3A%2F%2Ffonts.googleapis.com%2Fcss%3Ffamily%3DArchitects%2BDaughter;fillColor=#f8cecc;strokeColor=#b85450;shadow=1;" parent="1" vertex="1">
          <mxGeometry x="420" y="-2230" width="120" height="30" as="geometry" />
        </mxCell>
        <mxCell id="GahuecInYYnBUlUauTgn-7" value="&lt;font style=&quot;font-size: 17px;&quot;&gt;Contact&lt;/font&gt;" style="rounded=0;whiteSpace=wrap;html=1;hachureGap=4;fontFamily=Architects Daughter;fontSource=https%3A%2F%2Ffonts.googleapis.com%2Fcss%3Ffamily%3DArchitects%2BDaughter;fillColor=#f8cecc;strokeColor=#b85450;shadow=1;" parent="1" vertex="1">
          <mxGeometry x="560" y="-2230" width="120" height="30" as="geometry" />
        </mxCell>
        <mxCell id="GahuecInYYnBUlUauTgn-9" value="Contact Us" style="rounded=0;whiteSpace=wrap;html=1;hachureGap=4;fontFamily=Times New Roman;fillColor=#fff2cc;strokeColor=#d6b656;shadow=1;fontSize=22;" parent="1" vertex="1">
          <mxGeometry x="240" y="-2170" width="310" height="40" as="geometry" />
        </mxCell>
        <mxCell id="GahuecInYYnBUlUauTgn-10" value="Address&#xa;Abbington Farm, Abington, Biggar ML12 6RH" style="rounded=0;whiteSpace=wrap;html=1;hachureGap=4;fontFamily=Times New Roman;fillColor=#dae8fc;strokeColor=#6c8ebf;shadow=1;fontSize=15;" parent="1" vertex="1">
          <mxGeometry x="37.5" y="-2050" width="220" height="110" as="geometry" />
        </mxCell>
        <mxCell id="GahuecInYYnBUlUauTgn-11" value="Phone&#xa;01864 502501" style="rounded=0;whiteSpace=wrap;html=1;hachureGap=4;fontFamily=Times New Roman;fillColor=#dae8fc;strokeColor=#6c8ebf;shadow=1;fontSize=20;" parent="1" vertex="1">
          <mxGeometry x="293.5" y="-2050" width="230" height="110" as="geometry" />
        </mxCell>
        <UserObject label="Email&#xa;info@abbingtonfarm.com" id="GahuecInYYnBUlUauTgn-12">
          <mxCell style="rounded=0;whiteSpace=wrap;html=1;hachureGap=4;fontFamily=Times New Roman;fillColor=#dae8fc;strokeColor=#6c8ebf;shadow=1;fontSize=16;" parent="1" vertex="1">
            <mxGeometry x="560" y="-2050" width="230" height="110" as="geometry" />
          </mxCell>
        </UserObject>
        <mxCell id="GahuecInYYnBUlUauTgn-16" value="" style="rounded=0;whiteSpace=wrap;html=1;hachureGap=4;fontFamily=Architects Daughter;fontSource=https%3A%2F%2Ffonts.googleapis.com%2Fcss%3Ffamily%3DArchitects%2BDaughter;fillColor=#d5e8d4;strokeColor=#82b366;shadow=1;" parent="1" vertex="1">
          <mxGeometry x="10" y="-1090" width="810" height="80" as="geometry" />
        </mxCell>
        <mxCell id="GahuecInYYnBUlUauTgn-17" value="&#xa;&lt;div style=&quot;color: rgb(0, 0, 0); background-color: rgb(255, 255, 255); font-weight: normal; font-size: 14px; line-height: 19px; white-space: pre;&quot;&gt;&lt;div&gt;&lt;span style=&quot;color: #000000;&quot;&gt;2024 Farm Fun | All Rights Reserved&lt;/span&gt;&lt;/div&gt;&lt;/div&gt;&#xa;&#xa;" style="rounded=0;whiteSpace=wrap;html=1;hachureGap=4;fontFamily=Comic Sans MS;" parent="1" vertex="1">
          <mxGeometry x="30" y="-1060" width="290" height="40" as="geometry" />
        </mxCell>
        <mxCell id="GahuecInYYnBUlUauTgn-18" style="edgeStyle=orthogonalEdgeStyle;rounded=0;hachureGap=4;orthogonalLoop=1;jettySize=auto;html=1;exitX=0.5;exitY=1;exitDx=0;exitDy=0;fontFamily=Architects Daughter;fontSource=https%3A%2F%2Ffonts.googleapis.com%2Fcss%3Ffamily%3DArchitects%2BDaughter;" parent="1" source="GahuecInYYnBUlUauTgn-17" target="GahuecInYYnBUlUauTgn-17" edge="1">
          <mxGeometry relative="1" as="geometry" />
        </mxCell>
        <mxCell id="GahuecInYYnBUlUauTgn-19" value="facebook" style="ellipse;whiteSpace=wrap;html=1;rounded=0;hachureGap=4;fontFamily=Architects Daughter;fontSource=https%3A%2F%2Ffonts.googleapis.com%2Fcss%3Ffamily%3DArchitects%2BDaughter;" parent="1" vertex="1">
          <mxGeometry x="580" y="-1060" width="60" height="30" as="geometry" />
        </mxCell>
        <mxCell id="GahuecInYYnBUlUauTgn-20" value="instgram" style="ellipse;whiteSpace=wrap;html=1;rounded=0;hachureGap=4;fontFamily=Architects Daughter;fontSource=https%3A%2F%2Ffonts.googleapis.com%2Fcss%3Ffamily%3DArchitects%2BDaughter;" parent="1" vertex="1">
          <mxGeometry x="653" y="-1060" width="70" height="30" as="geometry" />
        </mxCell>
        <mxCell id="GahuecInYYnBUlUauTgn-21" value="tiwwter" style="ellipse;whiteSpace=wrap;html=1;rounded=0;hachureGap=4;fontFamily=Architects Daughter;fontSource=https%3A%2F%2Ffonts.googleapis.com%2Fcss%3Ffamily%3DArchitects%2BDaughter;" parent="1" vertex="1">
          <mxGeometry x="733" y="-1060" width="70" height="30" as="geometry" />
        </mxCell>
        <mxCell id="EN3Dmiqf5EVSih7V_GwP-4" value="Opening Times&#xa;Monday to Saturday: 8:00 AM – 5:00 PM&#xa;Sunday: 9:00 AM – 4:30 PM" style="rounded=0;whiteSpace=wrap;html=1;hachureGap=4;fontFamily=Times New Roman;fillColor=#f5f5f5;fontColor=#333333;strokeColor=#666666;shadow=0;fontSize=15;" parent="1" vertex="1">
          <mxGeometry x="40" y="-1930" width="740" height="150" as="geometry" />
        </mxCell>
        <mxCell id="EN3Dmiqf5EVSih7V_GwP-27" value="If you have any questions or inquiries, feel free to reach out to us. We&#39;re here to help!" style="rounded=0;whiteSpace=wrap;html=1;hachureGap=4;fontFamily=Times New Roman;fontSize=18;fillColor=#f5f5f5;fontColor=#333333;strokeColor=#666666;" parent="1" vertex="1">
          <mxGeometry x="101.25" y="-2120" width="660" height="40" as="geometry" />
        </mxCell>
        <mxCell id="EN3Dmiqf5EVSih7V_GwP-29" value="Get In Touch" style="text;html=1;align=center;verticalAlign=middle;whiteSpace=wrap;rounded=0;fontFamily=Times New Roman;fontSize=20;" parent="1" vertex="1">
          <mxGeometry x="340" y="-1760" width="140" height="30" as="geometry" />
        </mxCell>
        <mxCell id="EN3Dmiqf5EVSih7V_GwP-30" value="Name" style="text;html=1;align=center;verticalAlign=middle;whiteSpace=wrap;rounded=0;fontFamily=Times New Roman;fontSize=15;" parent="1" vertex="1">
          <mxGeometry x="67" y="-1710" width="70" height="30" as="geometry" />
        </mxCell>
        <mxCell id="EN3Dmiqf5EVSih7V_GwP-31" value="EMail" style="text;html=1;align=center;verticalAlign=middle;whiteSpace=wrap;rounded=0;fontFamily=Times New Roman;fontSize=15;" parent="1" vertex="1">
          <mxGeometry x="70" y="-1650" width="60" height="30" as="geometry" />
        </mxCell>
        <mxCell id="EN3Dmiqf5EVSih7V_GwP-32" value="Inquiry Time" style="text;html=1;align=center;verticalAlign=middle;whiteSpace=wrap;rounded=0;fontFamily=Times New Roman;fontSize=15;" parent="1" vertex="1">
          <mxGeometry x="67" y="-1590" width="100" height="30" as="geometry" />
        </mxCell>
        <mxCell id="EN3Dmiqf5EVSih7V_GwP-33" value="Message" style="text;html=1;align=center;verticalAlign=middle;whiteSpace=wrap;rounded=0;fontFamily=Times New Roman;fontSize=14;" parent="1" vertex="1">
          <mxGeometry x="72" y="-1527" width="60" height="30" as="geometry" />
        </mxCell>
        <mxCell id="EN3Dmiqf5EVSih7V_GwP-34" value="" style="rounded=0;whiteSpace=wrap;html=1;hachureGap=4;fontFamily=Architects Daughter;fontSource=https%3A%2F%2Ffonts.googleapis.com%2Fcss%3Ffamily%3DArchitects%2BDaughter;fillColor=#f5f5f5;fontColor=#333333;strokeColor=#666666;" parent="1" vertex="1">
          <mxGeometry x="67" y="-1500" width="683" height="170" as="geometry" />
        </mxCell>
        <mxCell id="EN3Dmiqf5EVSih7V_GwP-36" value="" style="rounded=0;whiteSpace=wrap;html=1;hachureGap=4;fontFamily=Architects Daughter;fontSource=https%3A%2F%2Ffonts.googleapis.com%2Fcss%3Ffamily%3DArchitects%2BDaughter;" parent="1" vertex="1">
          <mxGeometry x="67" y="-1620" width="683" height="30" as="geometry" />
        </mxCell>
        <mxCell id="EN3Dmiqf5EVSih7V_GwP-37" value="" style="rounded=0;whiteSpace=wrap;html=1;hachureGap=4;fontFamily=Architects Daughter;fontSource=https%3A%2F%2Ffonts.googleapis.com%2Fcss%3Ffamily%3DArchitects%2BDaughter;" parent="1" vertex="1">
          <mxGeometry x="70" y="-1680" width="680" height="30" as="geometry" />
        </mxCell>
        <mxCell id="EN3Dmiqf5EVSih7V_GwP-39" style="edgeStyle=orthogonalEdgeStyle;rounded=0;sketch=1;hachureGap=4;jiggle=2;curveFitting=1;orthogonalLoop=1;jettySize=auto;html=1;exitX=0.5;exitY=1;exitDx=0;exitDy=0;fontFamily=Times New Roman;" parent="1" source="EN3Dmiqf5EVSih7V_GwP-32" target="EN3Dmiqf5EVSih7V_GwP-32" edge="1">
          <mxGeometry relative="1" as="geometry" />
        </mxCell>
        <mxCell id="EN3Dmiqf5EVSih7V_GwP-52" value="Workflow" style="rounded=1;html=1;align=left;fontSize=12;spacingLeft=10;hachureGap=4;pointerEvents=0;fontFamily=Architects Daughter;fontSource=https%3A%2F%2Ffonts.googleapis.com%2Fcss%3Ffamily%3DArchitects%2BDaughter;" parent="1" vertex="1">
          <mxGeometry x="67" y="-1560" width="683" height="33" as="geometry" />
        </mxCell>
        <mxCell id="EN3Dmiqf5EVSih7V_GwP-53" value="" style="shape=triangle;direction=south;fillColor=#596780;strokeColor=none;html=1;sketch=0;hachureGap=4;pointerEvents=0;fontFamily=Architects Daughter;fontSource=https%3A%2F%2Ffonts.googleapis.com%2Fcss%3Ffamily%3DArchitects%2BDaughter;fontSize=20;jiggle=2;curveFitting=1;" parent="EN3Dmiqf5EVSih7V_GwP-52" vertex="1">
          <mxGeometry x="1" y="0.5" width="12" height="6" relative="1" as="geometry">
            <mxPoint x="-20" y="-3" as="offset" />
          </mxGeometry>
        </mxCell>
        <mxCell id="EN3Dmiqf5EVSih7V_GwP-63" value="&lt;h3&gt;&lt;font face=&quot;Times New Roman&quot;&gt;Send Message&lt;/font&gt;&lt;/h3&gt;" style="labelPosition=center;verticalLabelPosition=middle;align=center;html=1;shape=mxgraph.basic.shaded_button;dx=10;fillColor=#fff2cc;strokeColor=#d6b656;whiteSpace=wrap;hachureGap=4;fontFamily=Architects Daughter;fontSource=https%3A%2F%2Ffonts.googleapis.com%2Fcss%3Ffamily%3DArchitects%2BDaughter;" parent="1" vertex="1">
          <mxGeometry x="70" y="-1310" width="170" height="60" as="geometry" />
        </mxCell>
        <mxCell id="EN3Dmiqf5EVSih7V_GwP-67" value="" style="shape=image;html=1;verticalAlign=top;verticalLabelPosition=bottom;labelBackgroundColor=#ffffff;imageAspect=0;aspect=fixed;image=https://cdn2.iconfinder.com/data/icons/on-point-social-media/141/Maps-128.png;sketch=1;hachureGap=4;jiggle=2;curveFitting=1;fontFamily=Architects Daughter;fontSource=https%3A%2F%2Ffonts.googleapis.com%2Fcss%3Ffamily%3DArchitects%2BDaughter;" parent="1" vertex="1">
          <mxGeometry x="383.75" y="-1210" width="96.25" height="96.25" as="geometry" />
        </mxCell>
        <mxCell id="EN3Dmiqf5EVSih7V_GwP-71" value="&lt;h2&gt;&lt;font face=&quot;Times New Roman&quot;&gt;Find Us&lt;/font&gt;&lt;/h2&gt;" style="rounded=0;whiteSpace=wrap;html=1;hachureGap=4;fontFamily=Architects Daughter;fontSource=https%3A%2F%2Ffonts.googleapis.com%2Fcss%3Ffamily%3DArchitects%2BDaughter;" parent="1" vertex="1">
          <mxGeometry x="371.25" y="-1250" width="120" height="30" as="geometry" />
        </mxCell>
      </root>
    </mxGraphModel>
  </diagram>
  <diagram id="bTQTkLBvb8D2fl7QJFem" name="Cafe_Page">
    <mxGraphModel dx="1877" dy="1691" grid="1" gridSize="10" guides="1" tooltips="1" connect="1" arrows="1" fold="1" page="1" pageScale="1" pageWidth="827" pageHeight="1169" math="0" shadow="0">
      <root>
        <mxCell id="0" />
        <mxCell id="1" parent="0" />
        <mxCell id="CA9aW_esZc93GLnYOLxs-1" value="" style="rounded=0;whiteSpace=wrap;html=1;hachureGap=4;fontFamily=Architects Daughter;fontSource=https%3A%2F%2Ffonts.googleapis.com%2Fcss%3Ffamily%3DArchitects%2BDaughter;labelBackgroundColor=#bbeef2;labelBorderColor=default;textShadow=0;fillColor=#fff2cc;strokeColor=#d6b656;" vertex="1" parent="1">
          <mxGeometry x="10" y="-1030" width="815" height="1150" as="geometry" />
        </mxCell>
        <mxCell id="CA9aW_esZc93GLnYOLxs-2" value="&lt;font style=&quot;font-size: 25px;&quot;&gt;Harvest Haven Farm&lt;/font&gt;" style="rounded=0;whiteSpace=wrap;html=1;hachureGap=4;fontFamily=Architects Daughter;fontSource=https%3A%2F%2Ffonts.googleapis.com%2Fcss%3Ffamily%3DArchitects%2BDaughter;fillColor=#d5e8d4;strokeColor=#82b366;" vertex="1" parent="1">
          <mxGeometry x="12.5" y="-1155" width="810" height="110" as="geometry" />
        </mxCell>
        <mxCell id="CA9aW_esZc93GLnYOLxs-3" value="" style="rounded=0;whiteSpace=wrap;html=1;hachureGap=4;fontFamily=Architects Daughter;fontSource=https%3A%2F%2Ffonts.googleapis.com%2Fcss%3Ffamily%3DArchitects%2BDaughter;fillColor=#d5e8d4;strokeColor=#82b366;" vertex="1" parent="1">
          <mxGeometry x="12.5" y="-1045" width="810" height="40" as="geometry" />
        </mxCell>
        <mxCell id="CA9aW_esZc93GLnYOLxs-16" value="" style="rounded=0;whiteSpace=wrap;html=1;hachureGap=4;fontFamily=Architects Daughter;fontSource=https%3A%2F%2Ffonts.googleapis.com%2Fcss%3Ffamily%3DArchitects%2BDaughter;fillColor=#d5e8d4;strokeColor=#82b366;shadow=1;" vertex="1" parent="1">
          <mxGeometry x="9" width="810" height="110" as="geometry" />
        </mxCell>
        <mxCell id="CA9aW_esZc93GLnYOLxs-17" value="&#xa;&lt;div style=&quot;color: rgb(0, 0, 0); background-color: rgb(255, 255, 255); font-weight: normal; font-size: 14px; line-height: 19px; white-space: pre;&quot;&gt;&lt;div&gt;&lt;span style=&quot;color: #000000;&quot;&gt;2024 Farm Fun | All Rights Reserved&lt;/span&gt;&lt;/div&gt;&lt;/div&gt;&#xa;&#xa;" style="rounded=0;whiteSpace=wrap;html=1;hachureGap=4;fontFamily=Times New Roman;" vertex="1" parent="1">
          <mxGeometry x="10" y="60" width="290" height="40" as="geometry" />
        </mxCell>
        <mxCell id="CA9aW_esZc93GLnYOLxs-18" style="edgeStyle=orthogonalEdgeStyle;rounded=0;hachureGap=4;orthogonalLoop=1;jettySize=auto;html=1;exitX=0.5;exitY=1;exitDx=0;exitDy=0;fontFamily=Architects Daughter;fontSource=https%3A%2F%2Ffonts.googleapis.com%2Fcss%3Ffamily%3DArchitects%2BDaughter;" edge="1" parent="1" source="CA9aW_esZc93GLnYOLxs-17" target="CA9aW_esZc93GLnYOLxs-17">
          <mxGeometry relative="1" as="geometry" />
        </mxCell>
        <mxCell id="CA9aW_esZc93GLnYOLxs-19" value="facebook" style="ellipse;whiteSpace=wrap;html=1;rounded=0;hachureGap=4;fontFamily=Times New Roman;" vertex="1" parent="1">
          <mxGeometry x="580" y="60" width="60" height="40" as="geometry" />
        </mxCell>
        <mxCell id="CA9aW_esZc93GLnYOLxs-20" value="instgram" style="ellipse;whiteSpace=wrap;html=1;rounded=0;hachureGap=4;fontFamily=Times New Roman;" vertex="1" parent="1">
          <mxGeometry x="650" y="65" width="70" height="35" as="geometry" />
        </mxCell>
        <mxCell id="CA9aW_esZc93GLnYOLxs-21" value="tiwwter" style="ellipse;whiteSpace=wrap;html=1;rounded=0;hachureGap=4;fontFamily=Times New Roman;" vertex="1" parent="1">
          <mxGeometry x="735" y="60" width="60" height="40" as="geometry" />
        </mxCell>
        <mxCell id="CA9aW_esZc93GLnYOLxs-22" value="Gallary" style="text;html=1;align=center;verticalAlign=middle;whiteSpace=wrap;rounded=0;fontFamily=Times New Roman;fontStyle=1" vertex="1" parent="1">
          <mxGeometry x="560" y="-1035" width="60" height="30" as="geometry" />
        </mxCell>
        <mxCell id="CA9aW_esZc93GLnYOLxs-23" value="Cafe" style="text;html=1;align=center;verticalAlign=middle;whiteSpace=wrap;rounded=0;fontFamily=Times New Roman;fontStyle=1" vertex="1" parent="1">
          <mxGeometry x="460" y="-1035" width="60" height="30" as="geometry" />
        </mxCell>
        <mxCell id="CA9aW_esZc93GLnYOLxs-24" value="Activities" style="text;html=1;align=center;verticalAlign=middle;whiteSpace=wrap;rounded=0;fontFamily=Times New Roman;fontStyle=1" vertex="1" parent="1">
          <mxGeometry x="370" y="-1035" width="60" height="30" as="geometry" />
        </mxCell>
        <mxCell id="CA9aW_esZc93GLnYOLxs-25" value="Shop" style="text;html=1;align=center;verticalAlign=middle;whiteSpace=wrap;rounded=0;fontFamily=Times New Roman;fontStyle=1" vertex="1" parent="1">
          <mxGeometry x="270" y="-1035" width="60" height="30" as="geometry" />
        </mxCell>
        <mxCell id="CA9aW_esZc93GLnYOLxs-26" value="About Us" style="text;html=1;align=center;verticalAlign=middle;whiteSpace=wrap;rounded=0;fontFamily=Times New Roman;fontStyle=1" vertex="1" parent="1">
          <mxGeometry x="190" y="-1035" width="60" height="30" as="geometry" />
        </mxCell>
        <mxCell id="CA9aW_esZc93GLnYOLxs-27" value="Home" style="text;html=1;align=center;verticalAlign=middle;whiteSpace=wrap;rounded=0;fontFamily=Times New Roman;fontStyle=1" vertex="1" parent="1">
          <mxGeometry x="120" y="-1035" width="60" height="30" as="geometry" />
        </mxCell>
        <mxCell id="D6kGVyJ_DY71B1RN9QNL-1" value="Contact" style="text;html=1;align=center;verticalAlign=middle;whiteSpace=wrap;rounded=0;fontFamily=Times New Roman;fontStyle=1" vertex="1" parent="1">
          <mxGeometry x="640" y="-1035" width="60" height="30" as="geometry" />
        </mxCell>
        <mxCell id="B3NSNyXQFPj1kPfGNqCJ-8" value="" style="rounded=0;whiteSpace=wrap;html=1;hachureGap=4;fontFamily=Architects Daughter;fontSource=https%3A%2F%2Ffonts.googleapis.com%2Fcss%3Ffamily%3DArchitects%2BDaughter;fillColor=#f5f5f5;fontColor=#333333;strokeColor=#666666;" vertex="1" parent="1">
          <mxGeometry x="20" y="-915" width="780" height="160" as="geometry" />
        </mxCell>
        <mxCell id="B3NSNyXQFPj1kPfGNqCJ-9" value="Farm Cafe - Order Menu" style="text;html=1;align=center;verticalAlign=middle;whiteSpace=wrap;rounded=0;fontFamily=Times New Roman;fontStyle=1;fontSize=20;" vertex="1" parent="1">
          <mxGeometry x="250" y="-990" width="270" height="30" as="geometry" />
        </mxCell>
        <mxCell id="B3NSNyXQFPj1kPfGNqCJ-10" value="Select your items and place your order!" style="text;html=1;align=center;verticalAlign=middle;whiteSpace=wrap;rounded=0;fontFamily=Times New Roman;fontStyle=1" vertex="1" parent="1">
          <mxGeometry x="140" y="-950" width="520" height="30" as="geometry" />
        </mxCell>
        <mxCell id="B3NSNyXQFPj1kPfGNqCJ-13" value="Breakfast" style="text;html=1;align=center;verticalAlign=middle;whiteSpace=wrap;rounded=0;fontFamily=Times New Roman;fontStyle=1" vertex="1" parent="1">
          <mxGeometry x="5" y="-910" width="160" height="30" as="geometry" />
        </mxCell>
        <mxCell id="B3NSNyXQFPj1kPfGNqCJ-17" value="&lt;div&gt;Avocado Toast&lt;/div&gt;&lt;div&gt;&lt;br&gt;&lt;/div&gt;" style="text;html=1;align=center;verticalAlign=middle;whiteSpace=wrap;rounded=0;fontFamily=Times New Roman;" vertex="1" parent="1">
          <mxGeometry x="-20" y="-800" width="240" height="30" as="geometry" />
        </mxCell>
        <mxCell id="B3NSNyXQFPj1kPfGNqCJ-18" value="&lt;div&gt;Pancakes with Maple Syrup&lt;/div&gt;&lt;div&gt;&lt;br&gt;&lt;/div&gt;" style="text;html=1;align=center;verticalAlign=middle;whiteSpace=wrap;rounded=0;fontFamily=Times New Roman;" vertex="1" parent="1">
          <mxGeometry x="40" y="-840" width="190" height="30" as="geometry" />
        </mxCell>
        <mxCell id="B3NSNyXQFPj1kPfGNqCJ-19" value="Classic English Breakfast" style="text;html=1;align=center;verticalAlign=middle;whiteSpace=wrap;rounded=0;fontFamily=Times New Roman;" vertex="1" parent="1">
          <mxGeometry x="-30" y="-880" width="310" height="30" as="geometry" />
        </mxCell>
        <mxCell id="B3NSNyXQFPj1kPfGNqCJ-20" value="" style="rounded=0;whiteSpace=wrap;html=1;hachureGap=4;fontFamily=Architects Daughter;fontSource=https%3A%2F%2Ffonts.googleapis.com%2Fcss%3Ffamily%3DArchitects%2BDaughter;" vertex="1" parent="1">
          <mxGeometry x="390" y="-810" width="120" height="30" as="geometry" />
        </mxCell>
        <mxCell id="B3NSNyXQFPj1kPfGNqCJ-21" value="" style="rounded=0;whiteSpace=wrap;html=1;hachureGap=4;fontFamily=Architects Daughter;fontSource=https%3A%2F%2Ffonts.googleapis.com%2Fcss%3Ffamily%3DArchitects%2BDaughter;" vertex="1" parent="1">
          <mxGeometry x="390" y="-850" width="120" height="30" as="geometry" />
        </mxCell>
        <mxCell id="B3NSNyXQFPj1kPfGNqCJ-22" value="" style="rounded=0;whiteSpace=wrap;html=1;hachureGap=4;fontFamily=Architects Daughter;fontSource=https%3A%2F%2Ffonts.googleapis.com%2Fcss%3Ffamily%3DArchitects%2BDaughter;" vertex="1" parent="1">
          <mxGeometry x="390" y="-890" width="120" height="30" as="geometry" />
        </mxCell>
        <mxCell id="B3NSNyXQFPj1kPfGNqCJ-25" value="" style="rounded=0;whiteSpace=wrap;html=1;" vertex="1" parent="1">
          <mxGeometry x="720" y="-900" width="65" height="30" as="geometry" />
        </mxCell>
        <mxCell id="B3NSNyXQFPj1kPfGNqCJ-33" value="" style="rounded=0;whiteSpace=wrap;html=1;fillColor=#f5f5f5;fontColor=#333333;strokeColor=#666666;" vertex="1" parent="1">
          <mxGeometry x="20" y="-740" width="780" height="170" as="geometry" />
        </mxCell>
        <mxCell id="B3NSNyXQFPj1kPfGNqCJ-34" value="Fresh Juice" style="text;html=1;align=center;verticalAlign=middle;whiteSpace=wrap;rounded=0;" vertex="1" parent="1">
          <mxGeometry x="40" y="-614" width="80" height="30" as="geometry" />
        </mxCell>
        <mxCell id="B3NSNyXQFPj1kPfGNqCJ-35" value="Freshly Brewed Coffee" style="text;html=1;align=center;verticalAlign=middle;whiteSpace=wrap;rounded=0;" vertex="1" parent="1">
          <mxGeometry x="27.5" y="-710" width="145" height="30" as="geometry" />
        </mxCell>
        <mxCell id="B3NSNyXQFPj1kPfGNqCJ-37" value="Organic Tea" style="text;html=1;align=center;verticalAlign=middle;whiteSpace=wrap;rounded=0;" vertex="1" parent="1">
          <mxGeometry x="40" y="-650" width="80" height="30" as="geometry" />
        </mxCell>
        <mxCell id="B3NSNyXQFPj1kPfGNqCJ-38" value="Latte" style="text;html=1;align=center;verticalAlign=middle;whiteSpace=wrap;rounded=0;" vertex="1" parent="1">
          <mxGeometry x="40" y="-680" width="60" height="30" as="geometry" />
        </mxCell>
        <mxCell id="B3NSNyXQFPj1kPfGNqCJ-40" value="&lt;b&gt;Drinks&lt;/b&gt;" style="text;html=1;align=center;verticalAlign=middle;whiteSpace=wrap;rounded=0;" vertex="1" parent="1">
          <mxGeometry x="-20" y="-740" width="220" height="30" as="geometry" />
        </mxCell>
        <mxCell id="B3NSNyXQFPj1kPfGNqCJ-42" value="" style="rounded=0;whiteSpace=wrap;html=1;hachureGap=4;fontFamily=Architects Daughter;fontSource=https%3A%2F%2Ffonts.googleapis.com%2Fcss%3Ffamily%3DArchitects%2BDaughter;" vertex="1" parent="1">
          <mxGeometry x="390" y="-720" width="120" height="30" as="geometry" />
        </mxCell>
        <mxCell id="B3NSNyXQFPj1kPfGNqCJ-43" value="" style="rounded=0;whiteSpace=wrap;html=1;hachureGap=4;fontFamily=Architects Daughter;fontSource=https%3A%2F%2Ffonts.googleapis.com%2Fcss%3Ffamily%3DArchitects%2BDaughter;" vertex="1" parent="1">
          <mxGeometry x="390" y="-680" width="120" height="30" as="geometry" />
        </mxCell>
        <mxCell id="B3NSNyXQFPj1kPfGNqCJ-44" value="" style="rounded=0;whiteSpace=wrap;html=1;hachureGap=4;fontFamily=Architects Daughter;fontSource=https%3A%2F%2Ffonts.googleapis.com%2Fcss%3Ffamily%3DArchitects%2BDaughter;" vertex="1" parent="1">
          <mxGeometry x="390" y="-644" width="120" height="30" as="geometry" />
        </mxCell>
        <mxCell id="B3NSNyXQFPj1kPfGNqCJ-45" value="" style="rounded=0;whiteSpace=wrap;html=1;hachureGap=4;fontFamily=Architects Daughter;fontSource=https%3A%2F%2Ffonts.googleapis.com%2Fcss%3Ffamily%3DArchitects%2BDaughter;" vertex="1" parent="1">
          <mxGeometry x="390" y="-610" width="120" height="30" as="geometry" />
        </mxCell>
        <mxCell id="B3NSNyXQFPj1kPfGNqCJ-46" value="" style="rounded=0;whiteSpace=wrap;html=1;" vertex="1" parent="1">
          <mxGeometry x="720" y="-730" width="65" height="30" as="geometry" />
        </mxCell>
        <mxCell id="B3NSNyXQFPj1kPfGNqCJ-47" value="" style="rounded=0;whiteSpace=wrap;html=1;" vertex="1" parent="1">
          <mxGeometry x="720" y="-690" width="65" height="30" as="geometry" />
        </mxCell>
        <mxCell id="B3NSNyXQFPj1kPfGNqCJ-48" value="" style="rounded=0;whiteSpace=wrap;html=1;" vertex="1" parent="1">
          <mxGeometry x="720" y="-650" width="65" height="30" as="geometry" />
        </mxCell>
        <mxCell id="B3NSNyXQFPj1kPfGNqCJ-49" value="" style="rounded=0;whiteSpace=wrap;html=1;" vertex="1" parent="1">
          <mxGeometry x="720" y="-614" width="65" height="30" as="geometry" />
        </mxCell>
        <mxCell id="B3NSNyXQFPj1kPfGNqCJ-50" value="" style="rounded=0;whiteSpace=wrap;html=1;" vertex="1" parent="1">
          <mxGeometry x="722.5" y="-810" width="65" height="30" as="geometry" />
        </mxCell>
        <mxCell id="B3NSNyXQFPj1kPfGNqCJ-51" value="" style="rounded=0;whiteSpace=wrap;html=1;" vertex="1" parent="1">
          <mxGeometry x="722.5" y="-850" width="65" height="30" as="geometry" />
        </mxCell>
        <mxCell id="B3NSNyXQFPj1kPfGNqCJ-52" value="" style="rounded=0;whiteSpace=wrap;html=1;fillColor=#f5f5f5;fontColor=#333333;strokeColor=#666666;" vertex="1" parent="1">
          <mxGeometry x="20" y="-560" width="780" height="170" as="geometry" />
        </mxCell>
        <mxCell id="B3NSNyXQFPj1kPfGNqCJ-53" value="Snacks" style="text;html=1;align=center;verticalAlign=middle;whiteSpace=wrap;rounded=0;fontFamily=Times New Roman;fontStyle=1" vertex="1" parent="1">
          <mxGeometry y="-550" width="220" height="30" as="geometry" />
        </mxCell>
        <mxCell id="B3NSNyXQFPj1kPfGNqCJ-54" value="Homemade Cake of the Day" style="text;html=1;align=center;verticalAlign=middle;whiteSpace=wrap;rounded=0;" vertex="1" parent="1">
          <mxGeometry x="27.5" y="-510" width="182.5" height="30" as="geometry" />
        </mxCell>
        <mxCell id="B3NSNyXQFPj1kPfGNqCJ-55" value="&lt;div&gt;Soup of the Day&lt;/div&gt;&lt;div&gt;&lt;br&gt;&lt;/div&gt;" style="text;html=1;align=center;verticalAlign=middle;whiteSpace=wrap;rounded=0;" vertex="1" parent="1">
          <mxGeometry x="27.5" y="-480" width="145" height="30" as="geometry" />
        </mxCell>
        <mxCell id="B3NSNyXQFPj1kPfGNqCJ-56" value="Sandwiches" style="text;html=1;align=center;verticalAlign=middle;whiteSpace=wrap;rounded=0;" vertex="1" parent="1">
          <mxGeometry x="27.5" y="-450" width="145" height="30" as="geometry" />
        </mxCell>
        <mxCell id="B3NSNyXQFPj1kPfGNqCJ-58" value="" style="rounded=0;whiteSpace=wrap;html=1;hachureGap=4;fontFamily=Architects Daughter;fontSource=https%3A%2F%2Ffonts.googleapis.com%2Fcss%3Ffamily%3DArchitects%2BDaughter;" vertex="1" parent="1">
          <mxGeometry x="390" y="-520" width="120" height="30" as="geometry" />
        </mxCell>
        <mxCell id="B3NSNyXQFPj1kPfGNqCJ-59" value="" style="rounded=0;whiteSpace=wrap;html=1;hachureGap=4;fontFamily=Architects Daughter;fontSource=https%3A%2F%2Ffonts.googleapis.com%2Fcss%3Ffamily%3DArchitects%2BDaughter;" vertex="1" parent="1">
          <mxGeometry x="390" y="-480" width="120" height="30" as="geometry" />
        </mxCell>
        <mxCell id="B3NSNyXQFPj1kPfGNqCJ-60" value="" style="rounded=0;whiteSpace=wrap;html=1;hachureGap=4;fontFamily=Architects Daughter;fontSource=https%3A%2F%2Ffonts.googleapis.com%2Fcss%3Ffamily%3DArchitects%2BDaughter;" vertex="1" parent="1">
          <mxGeometry x="390" y="-440" width="120" height="30" as="geometry" />
        </mxCell>
        <mxCell id="B3NSNyXQFPj1kPfGNqCJ-62" value="" style="rounded=0;whiteSpace=wrap;html=1;" vertex="1" parent="1">
          <mxGeometry x="722.5" y="-530" width="65" height="30" as="geometry" />
        </mxCell>
        <mxCell id="B3NSNyXQFPj1kPfGNqCJ-63" value="" style="rounded=0;whiteSpace=wrap;html=1;" vertex="1" parent="1">
          <mxGeometry x="720" y="-490" width="65" height="30" as="geometry" />
        </mxCell>
        <mxCell id="B3NSNyXQFPj1kPfGNqCJ-64" style="edgeStyle=orthogonalEdgeStyle;rounded=0;orthogonalLoop=1;jettySize=auto;html=1;exitX=0.75;exitY=1;exitDx=0;exitDy=0;entryX=1;entryY=0.75;entryDx=0;entryDy=0;" edge="1" parent="1" source="B3NSNyXQFPj1kPfGNqCJ-63" target="B3NSNyXQFPj1kPfGNqCJ-63">
          <mxGeometry relative="1" as="geometry" />
        </mxCell>
        <mxCell id="B3NSNyXQFPj1kPfGNqCJ-65" value="" style="rounded=0;whiteSpace=wrap;html=1;" vertex="1" parent="1">
          <mxGeometry x="720" y="-450" width="65" height="30" as="geometry" />
        </mxCell>
        <mxCell id="B3NSNyXQFPj1kPfGNqCJ-68" value="" style="rounded=0;whiteSpace=wrap;html=1;fillColor=#f5f5f5;fontColor=#333333;strokeColor=#666666;" vertex="1" parent="1">
          <mxGeometry x="25" y="-370" width="770" height="350" as="geometry" />
        </mxCell>
        <mxCell id="p7EhapyS2IjZFabuflco-1" value="Your Order" style="text;html=1;align=center;verticalAlign=middle;whiteSpace=wrap;rounded=0;fontFamily=Times New Roman;fontStyle=1;fontSize=18;" vertex="1" parent="1">
          <mxGeometry x="352.5" y="-360" width="105" height="30" as="geometry" />
        </mxCell>
        <mxCell id="u4-v4cJCYwh3Xx1hrFzd-2" value="Text" style="text;html=1;align=center;verticalAlign=middle;whiteSpace=wrap;rounded=0;" vertex="1" parent="1">
          <mxGeometry x="380" y="-130" width="60" height="30" as="geometry" />
        </mxCell>
        <mxCell id="u4-v4cJCYwh3Xx1hrFzd-3" value="Text" style="text;html=1;align=center;verticalAlign=middle;whiteSpace=wrap;rounded=0;" vertex="1" parent="1">
          <mxGeometry x="380" y="-130" width="60" height="30" as="geometry" />
        </mxCell>
        <mxCell id="u4-v4cJCYwh3Xx1hrFzd-4" value="Name" style="text;html=1;align=center;verticalAlign=middle;whiteSpace=wrap;rounded=0;" vertex="1" parent="1">
          <mxGeometry x="40" y="-330" width="60" height="30" as="geometry" />
        </mxCell>
        <mxCell id="MjKbRHdIKOH5VzJDj_pP-1" value="" style="rounded=0;whiteSpace=wrap;html=1;" vertex="1" parent="1">
          <mxGeometry x="40" y="-300" width="730" height="30" as="geometry" />
        </mxCell>
        <mxCell id="MjKbRHdIKOH5VzJDj_pP-2" value="Email" style="text;html=1;align=center;verticalAlign=middle;whiteSpace=wrap;rounded=0;" vertex="1" parent="1">
          <mxGeometry x="40" y="-250" width="60" height="30" as="geometry" />
        </mxCell>
        <mxCell id="MjKbRHdIKOH5VzJDj_pP-3" value="" style="rounded=0;whiteSpace=wrap;html=1;" vertex="1" parent="1">
          <mxGeometry x="40" y="-220" width="730" height="30" as="geometry" />
        </mxCell>
        <mxCell id="MjKbRHdIKOH5VzJDj_pP-4" value="&#xa;&lt;div style=&quot;color: #000000;background-color: #ffffff;font-family: Consolas, &#39;Courier New&#39;, monospace;font-weight: normal;font-size: 14px;line-height: 19px;white-space: pre;&quot;&gt;&lt;div&gt;&lt;span style=&quot;color: #000000;&quot;&gt;Delivery Address:&lt;/span&gt;&lt;/div&gt;&lt;/div&gt;&#xa;&#xa;" style="text;html=1;align=center;verticalAlign=middle;whiteSpace=wrap;rounded=0;" vertex="1" parent="1">
          <mxGeometry x="40" y="-170" width="150" height="30" as="geometry" />
        </mxCell>
        <mxCell id="MjKbRHdIKOH5VzJDj_pP-5" value="" style="rounded=0;whiteSpace=wrap;html=1;" vertex="1" parent="1">
          <mxGeometry x="45" y="-145" width="715" height="35" as="geometry" />
        </mxCell>
        <mxCell id="MjKbRHdIKOH5VzJDj_pP-6" value="Button" style="labelPosition=center;verticalLabelPosition=middle;align=center;html=1;shape=mxgraph.basic.shaded_button;dx=10;fillColor=#E6E6E6;strokeColor=none;whiteSpace=wrap;" vertex="1" parent="1">
          <mxGeometry x="350" y="-100" width="140" height="60" as="geometry" />
        </mxCell>
      </root>
    </mxGraphModel>
  </diagram>
  <diagram id="X3l3AvmPXEPTO5tU5QwW" name="Page-6">
    <mxGraphModel dx="1050" dy="522" grid="1" gridSize="10" guides="1" tooltips="1" connect="1" arrows="1" fold="1" page="1" pageScale="1" pageWidth="827" pageHeight="1169" math="0" shadow="0">
      <root>
        <mxCell id="0" />
        <mxCell id="1" parent="0" />
      </root>
    </mxGraphModel>
  </diagram>
</mxfile>
